<?xml version="1.0" encoding="utf-8"?>
<!-- Generator: Adobe Illustrator 16.0.3, SVG Export Plug-In . SVG Version: 6.00 Build 0)  -->
<!DOCTYPE svg PUBLIC "-//W3C//DTD SVG 1.1//EN" "http://www.w3.org/Graphics/SVG/1.1/DTD/svg11.dtd">
<svg version="1.1" id="Layer_1" xmlns="http://www.w3.org/2000/svg"
    xmlns:xlink="http://www.w3.org/1999/xlink" x="0px" y="0px"
    width="413px" height="457px" viewBox="0 0 413 457" enable-background="new 0 0 413 457"
    xml:space="preserve">
<g>
	<path fill="#F9EC00" d="M212.196,416.442c164.377-74.418,157.36-345.644,157.36-345.644
		c-57.448-27.999-157.36-28.006-157.36-28.006s-99.912,0.007-157.36,28.006C54.836,70.798,47.817,342.024,212.196,416.442z"/>
	<g>
		<polygon fill="#E11931" points="177.82,364.018 179.681,370.736 186.436,369.047 181.566,374.028 186.389,379.044 
			179.641,377.317 177.711,383.977 175.843,377.284 169.103,378.957 173.966,373.974 169.16,368.946 175.892,370.736 		"/>
		<polygon fill="#E11931" points="200.768,364.132 202.643,370.836 209.401,369.181 204.521,374.157 209.35,379.181 
			202.594,377.427 200.662,384.131 198.801,377.405 192.028,379.071 196.932,374.119 192.094,369.085 198.842,370.829 		"/>
		<polygon fill="#E11931" points="223.709,364.253 225.601,370.974 232.35,369.329 227.458,374.273 232.288,379.313 225.56,377.561 
			223.614,384.257 221.754,377.541 214.986,379.214 219.879,374.229 215.055,369.23 221.781,370.969 		"/>
		<polygon fill="#E11931" points="246.676,364.389 248.556,371.118 255.288,369.433 250.42,374.399 255.271,379.443 
			248.505,377.689 246.562,384.388 244.704,377.656 237.939,379.334 242.832,374.361 238.021,369.337 244.744,371.078 		"/>
	</g>
	<path d="M269.246,125.907c1.391,3.99,4.317,6.021,8.773,6.04c4.36,0.024,8.461-2.328,12.382-7.079
		c3.872-4.73,6.54-10.293,7.939-16.694c1.024-4.763,0.912-8.582-0.398-11.396c-1.255-2.847-3.688-4.258-7.266-4.276
		c-1.917-0.006-3.649,0.308-5.158,0.958c-1.491,0.652-3.321,1.89-5.496,3.781l-0.082-0.146l1.415-3.789l-11.221-0.043
		l-22.601,56.541l0,0c4.02,0.303,7.959,0.59,11.853,0.929L269.246,125.907z M274.036,120.518c-0.708-1.071-0.839-2.763-0.35-4.989
		c0.688-3.123,1.965-6.165,3.833-9.162c1.86-2.967,3.891-4.473,6.167-4.451c1.101,0,1.983,0.512,2.57,1.533
		c0.585,1.052,0.64,2.669,0.134,4.999c-0.83,3.821-2.162,7.067-4.011,9.73c-1.857,2.676-3.718,3.983-5.455,3.983
		C275.678,122.161,274.735,121.616,274.036,120.518z M134.535,88.686c3.793,0,6.885-3.05,6.885-6.818
		c-0.021-3.747-3.092-6.797-6.902-6.82c-3.835,0.026-6.939,3.049-6.939,6.82S130.683,88.686,134.535,88.686z M235.674,93.334
		c-1.319-0.779-2.628-1.158-3.926-1.158c-1.703-0.022-3.371,0.546-5.074,1.674c-1.693,1.134-3.833,3.333-6.477,6.678l-0.059-0.133
		l2.997-7.404l-11.352-0.065l-14.97,37.627l12.164,0.038l5.614-14.061c1.725-4.374,3.568-7.558,5.429-9.534
		c1.898-1.985,4.006-2.966,6.322-2.954c0.746,0,1.544,0.135,2.426,0.397L235.674,93.334z M198.413,120.872l-11.454-1.381
		c-1.882,2.26-4.021,3.389-6.349,3.389c-3.448-0.021-4.836-2.548-4.068-7.609l24.147,0.155c1.327-3.589,2.166-6.083,2.491-7.558
		c0.953-4.457,0.502-8.206-1.421-11.262c-1.886-3.097-5.822-4.616-11.732-4.655c-2.726-0.012-5.198,0.299-7.415,1.005
		c-2.186,0.676-4.573,2.023-7.122,4.021c-2.535,2.02-4.749,4.481-6.65,7.458c-1.882,2.951-3.196,6.119-3.915,9.477
		c-1.057,4.819-0.625,8.946,1.271,12.34c1.918,3.349,5.992,5.027,12.237,5.053c4.306,0.051,8.065-0.757,11.257-2.387
		C192.91,127.287,195.823,124.609,198.413,120.872z M179.192,108.312c1.234-2.667,2.617-4.647,4.153-5.994
		c1.57-1.292,3.084-1.976,4.587-1.976c1.374,0.017,2.476,0.521,3.229,1.51c0.727,0.968,0.921,2.452,0.48,4.357
		c-0.196,0.898-0.421,1.643-0.669,2.15L179.192,108.312z M331.326,99.247l2.258-5.646l-11.356-0.06l-15.026,37.62l12.228,0.061
		l6.557-16.322c1.5-3.748,3.145-6.651,4.921-8.607c1.744-2.007,3.535-2.993,5.322-2.993c1.604,0.011,2.16,1.053,1.727,3.142
		c-0.17,0.61-1.058,3.052-2.758,7.351l-6.964,17.469l12.196,0.095l0.588-1.499l0.145-0.445l1.218-3.015l0.443-1.059l5.778-14.547
		c1.737-4.43,2.792-7.427,3.129-8.938c0.544-2.521,0.313-4.641-0.749-6.403c-1.061-1.758-3.017-2.64-5.88-2.65
		c-4.819-0.012-9.382,2.18-13.696,6.613L331.326,99.247z M307.809,93.46l-15.011,37.624l12.212,0.056l15.02-37.607L307.809,93.46z
		 M123.178,92.426l-13.866-0.07l-14.966,12.656l-0.12-0.153l10.759-26.918l-11.841-0.092l-20.762,52.007l11.846,0.062l3.88-9.667
		l7.792-6.12l-0.044,15.858l13.54,0.071l-3.721-24.464L123.178,92.426z M257.448,117.678c0.61-2.771,0.318-5.006-0.852-6.68
		c-1.186-1.709-4.008-2.956-8.51-3.8c-2.784-0.515-4.454-1.056-4.984-1.653c-0.552-0.564-0.729-1.303-0.552-2.181
		c0.191-0.847,0.737-1.612,1.614-2.244c0.907-0.626,2.106-0.939,3.559-0.93c2.507,0.026,3.696,1.143,3.523,3.438l11.705-1.377
		c0.212-3.658-0.641-6.194-2.587-7.708c-1.924-1.507-5.027-2.229-9.261-2.247c-3.701-0.014-6.944,0.568-9.781,1.763
		c-2.789,1.2-5.034,2.853-6.745,4.948c-1.718,2.13-2.83,4.272-3.303,6.459c-0.577,2.687-0.257,4.926,1.038,6.715
		c1.278,1.771,4.191,3.119,8.727,4.004c1.978,0.413,3.268,0.818,3.921,1.211c0.652,0.413,0.871,1.187,0.614,2.362
		c-0.33,1.252-1.05,2.243-2.194,2.927c-1.174,0.702-2.426,1.029-3.771,1.011c-2.863,0-4.234-1.553-4.105-4.608l-12.24,1.189
		c-0.464,4.005,0.242,6.907,2.243,8.684c1.947,1.757,5.459,2.668,10.524,2.688c6.175,0.032,11.081-1.331,14.696-4.058
		C254.359,124.881,256.597,121.55,257.448,117.678z M163.655,78.259l-20.677,51.979l12.221,0.067l20.663-51.971L163.655,78.259z
		 M125.517,92.438l-15.051,37.622l12.024,0.06l15.084-37.624L125.517,92.438z M148.77,78.179l-20.683,51.967l12.194,0.084
		l20.674-51.972L148.77,78.179z"/>
	<path d="M60.609,160.889c-2.937,6.021,2.946,23.186,0.473,29.022c56.105-21.835,182.152-39.84,307.744-16.669
		c-0.754-1.723-1.512-7.756-2.273-9.502l0,0C308.966,152.915,198.219,140.056,60.609,160.889L60.609,160.889z"/>
	<path d="M60.655,156.979c-3.016,5.985-5.757,11.962-8.313,17.772c58.533-17.258,191.127-30.412,316.393-5.54
		c-0.727-1.728-1.47-3.476-2.202-5.232l0,0C309.101,152.375,198.539,138.013,60.655,156.979L60.655,156.979z"/>
	<path d="M388.193,69.499l-0.303-11.322l-0.05-1.881l-1.62-0.795l-9.202-4.482C316.68,21.61,216.434,21.273,212.196,21.273
		c-4.234,0-104.477,0.337-164.806,29.746l-9.21,4.482l-1.623,0.795l-0.046,1.881l-0.298,11.332
		c-0.306,11.658-5.306,286.664,168.994,365.561l5.863,2.65l1.125,0.505l1.129-0.505l5.874-2.65
		C393.303,356.258,388.491,81.176,388.193,69.499z M54.836,70.798c57.448-27.999,157.36-28.006,157.36-28.006
		s99.912,0.007,157.36,28.006c0,0,7.017,271.226-157.36,345.644C47.817,342.024,54.836,70.798,54.836,70.798z"/>
	<polygon points="160.431,260.311 156.559,260.277 156.45,277.9 160.321,277.934 	"/>
	<polygon points="284.844,268.879 278.656,277.84 283.071,277.87 287.091,271.811 291,277.895 295.532,277.934 289.412,268.879 
		295.371,260.3 290.979,260.3 287.191,265.972 283.52,260.229 278.989,260.215 	"/>
	<polygon points="115.02,266.408 119.894,273.905 119.998,273.905 124.995,266.393 124.935,277.895 128.743,277.934 
		128.875,260.294 124.694,260.277 120.008,267.674 115.411,260.215 111.246,260.185 111.129,277.826 114.955,277.84 	"/>
	<polygon points="311.529,274.359 302.701,274.321 302.795,260.19 298.92,260.234 298.8,277.818 311.475,277.934 	"/>
	<polygon points="137.62,266.428 142.475,273.9 142.57,273.9 147.617,266.428 147.507,277.934 151.385,277.934 151.461,260.321 
		147.294,260.277 142.625,267.709 138.027,260.229 133.852,260.229 133.759,277.824 137.549,277.87 	"/>
	<path d="M280.647,352.021c-0.363-0.328-0.667-0.755-1.068-1.003c-1.592-2.121-4.084-1.235-5.641-2.667
		c-1.512-1.409-2.87-4.678-2.813-6.021c-0.096-0.85-1.257-2.618-3.099-3.459c0.264-6.792,0.197-13.587-0.907-20.325
		c-0.523-3.311-1.537-6.724-3.368-9.564c-2.286-3.606-3.002-7.705-4.997-11.273c-3.257-5.783-7.131-11.193-11.729-15.937
		c-1.388-1.429-2.616-2.401-3.169-4.336c-0.578-1.891-0.683-3.85-0.968-5.778c-0.524-3.071-1.157-5.598,0.285-8.543
		c0.565-1.12,1.345-2.104,2.205-2.979c0.219-0.257,2.857,1.48,3.354,1.749c1.847,1.003,1.658,1.172,2.587-0.577
		c0.918-1.623,2.214-3.341,2.58-5.193c1.238-6.69,2.231-13.272,2.932-20.054c0.485-4.992-2.104-9.816-5.319-13.533
		c-0.774-0.9-1.615-1.701-2.395-2.604c-1.145-1.316,0.091-3.699-1.048-5.193c-1.342-1.782-4.265-1.847-6.266-1.555
		c0.56-2.054,1.104-4.137,1.65-6.191c0.063-0.164,1.453-0.874,1.771-1.191c0.335-0.347,0.61-0.885,0.827-1.3
		c1.478-2.899,2.207-6.287,2.557-9.526c0.366-3.229,0.161-7.409-1.968-9.775c-1.613-1.771-5.483-5.643-7.978-5.483
		c-2.871,0.21-5.824-0.986-8.729-0.124c-3.625,1.114-5.499,4.03-6.603,7.424c-0.282,0.863-0.421,1.864-0.486,2.783
		c-0.063,1.268,1.019,1.119,1.207,2.124c0.033,0.283-0.789,0.672-0.789,0.975c0.019,0.492,0.191,1.035,0.282,1.555
		c0.136,0.704-0.399,1.56-0.651,2.238c-1.62,4.238-0.432,6.728-0.211,11.05c-3.979-1.033-8.008-3.601-12.218-2.104
		c-5.347,1.869-10.475,2.371-16.114,1.719c0.776-2.047,2.188-3.918,3.296-5.77c0.824-1.432,1.868-4.471,3.183-5.408
		c2.265-1.56,3.926-3.577,3.497-6.504c1.131,0.988,2.114,2.451,3.574,1.979c1.69-0.545,3.321-1.443,4.794-2.396
		c2.418-1.588,4.798-3.749,6.068-6.419c2.304-5.002,0.872-12.907-5.341-13.911c-5.861-0.93-13.082,4.492-14.438,10.349
		c-0.473,2.082,0.948,2.969-0.827,4.502c-0.869,0.764-2.317,1.361-3.421,2.35c-1.12,0.963-1.983,2.128-2.325,3.582
		c-0.591,2.201,0.74,4.122-0.623,5.861c-4.232,5.515-9.271,11.594-11.731,18.137c-0.959,2.514-1.994,4.812,0.549,6.819
		c2.476,1.953,6.035,2.814,9.106,3.268c3.623,0.553,7.218,1.12,10.812,1.894c1.595,0.358,5.917,0.643,6.573,2.691
		c0.272,0.854-0.44,1.263-0.629,2.038c-0.543,2.104-0.97,4.262-1.382,6.412c-0.402,1.848-0.604,3.725-0.749,5.634
		c-0.068,0.732-0.125,1.486-0.186,2.232c-0.109,2.114-0.486,1.017-1.646,2.377c-3.216,3.751,0.489,9.263-3.535,12.437
		c-0.27,0.197-1.024-0.109-1.19,0.101c-0.205,0.271-0.033,2.851,0.114,3.167c0.322,0.629,2.038,1.207,2.096,1.85
		c0.073,0.587-1.596,1.866-1.964,2.304c-2.364,2.699-6.151,5.496-7.81,8.642c-0.813,1.576,0.533,3.33,0.629,5.038
		c0.164,2.12-0.353,4.084-1.232,5.978c-1.565,3.369-4.251,6.074-6.505,8.98c-4.65,5.968-7.678,12.781-11.068,19.486
		c-0.904,1.816-1.978,2.295-3.391,3.666c-1.765,1.699-2.612,3.582-3.24,5.979c-0.957,3.661-0.517,7.229-1.123,10.935
		c-0.087,0.562-0.336,2.966-0.618,3.245c-0.442,0.399-3.098,0.454-3.964,0.935c-0.916,0.508-1.735,1.398-2.585,2.048
		c-2.167,1.572-3.898,2.206-4.901,4.716c-0.967,2.44-1.926,4.887-2.91,7.334c1.517,0.214,3.039,0.183,4.585,0.021
		c2.798-0.3,3.376-1.412,5.339-3.565c1.937-2.09,8.136-2.369,10.948-2.812c2.341-0.354,3.019-1.252,3.598-3.309
		c0.191-0.713,0.581-2.16,0.335-2.871c-0.578-1.694-3.155-2.043-1.242-3.885c1.847-1.776,4.046-3.53,5.45-5.732
		c0.924-1.483,0.681-4.319,1.88-5.563c1.172-1.24,4.278-1.47,5.598-2.159c2.875-1.54,5.389-4.47,8.129-6.376
		c3.398-2.383,6.863-4.766,10.114-7.355c1.246-1.046,2.426-2.186,3.53-3.394c1.836-1.978,3.42-1.268,6.163-1.145
		c2.651,0.126,3.109-9.852,5.636-10.549c2.217-0.623,2.285,1.082,3.235,3.032c0.882,1.837,1.847,3.64,2.729,5.46
		c1.241,2.497,1.714,1.696,4.077,0.77c2.291-0.874,4.371-2.394,6.667-1.459c5.78,2.361,11.965,3.214,13.703,9.973
		c0.854,3.388,0.795,7.202,2.369,10.421c0.696,1.377,2.02,2.57,2.64,3.967c0.53,1.312,1.953,2.824,2.658,4.277
		c0.86,1.777,1.447,3.774,1.915,5.679c0.891,3.917,0.855,7.207,0.675,11.163c-0.08,1.459,0.129,2.978,0.129,4.41
		c-0.015,0.617,4.564,2.114,5.169,2.088C270.801,354.635,281.085,357.045,280.647,352.021z"/>
	<polygon points="318.016,260.311 314.141,260.277 314.035,277.9 317.906,277.934 	"/>
</g>
</svg>